<svg width="625" height="158" viewBox="0 0 625 158" fill="none" xmlns="http://www.w3.org/2000/svg">
<path d="M583.225 85.393C583.862 64.371 570.165 59.2747 563.795 57.3636C551.055 54.1785 537.677 60.2303 527.484 66.2821C517.292 72.3338 510.603 80.6152 514.744 95.2669C518.056 106.988 533.536 112.254 540.862 113.422C545.64 113.104 555.641 112.276 557.425 111.511C559.654 110.556 582.559 107.37 583.225 85.393Z" fill="url(#paint0_linear_0_4726)"/>
<path d="M563.881 57.3888C570.286 59.3195 583.86 64.4628 583.226 85.3929C582.796 99.5875 573.089 105.943 565.667 108.922C560.783 110.267 554.972 110.257 548.35 106.692C536.793 100.469 530.547 80.2917 541.479 66.2386C548.182 57.6213 557.031 56.461 563.881 57.3888Z" fill="white"/>
<ellipse cx="559.974" cy="83.1628" rx="20.385" ry="22.9331" fill="#1A416B"/>
<path d="M624.344 41.1959C624.344 30.239 614.788 21.9788 610.011 19.2184C584.848 -10.722 538.663 2.65551 524.967 6.15917C511.271 9.66284 309.014 71.1363 298.503 72.0919C290.147 72.8515 268.057 34.46 256.737 12.6206C256.604 12.3641 256.344 12.2111 256.055 12.2111H247.309C246.791 12.2111 246.419 12.7123 246.57 13.2086L268.563 85.4695C265.165 86.9559 259.02 90.7897 258.052 93.4324C255.612 100.09 275.201 123.429 288.948 127.832C357.747 120.931 505.665 104.771 546.945 95.3434C598.544 83.5584 624.344 54.8921 624.344 41.1959Z" fill="white"/>
<path d="M271.957 95.1862L272.594 89.7715C251.253 92.0011 205.961 96.5877 195.513 97.0973C185.066 97.607 176.721 100.07 173.854 101.238L271.957 95.1862Z" fill="white"/>
<path d="M505.219 38.1142C505.219 37.2916 505.746 36.5613 506.526 36.3012C507.763 35.8887 509.041 36.8098 509.041 38.1142V40.4556C509.041 41.2782 508.515 42.0085 507.735 42.2686C506.497 42.6811 505.219 41.76 505.219 40.4556V38.1142Z" fill="#1A416B"/>
<path d="M498.212 40.0255C498.212 39.2029 498.738 38.4726 499.519 38.2125C500.756 37.8 502.034 38.7211 502.034 40.0255V42.3669C502.034 43.1895 501.508 43.9198 500.727 44.1799C499.49 44.5924 498.212 43.6713 498.212 42.3669V40.0255Z" fill="#1A416B"/>
<path d="M491.205 41.9367C491.205 41.1141 491.731 40.3838 492.511 40.1237C493.749 39.7112 495.027 40.6323 495.027 41.9367V44.2781C495.027 45.1006 494.5 45.8309 493.72 46.0911C492.483 46.5036 491.205 45.5825 491.205 44.2781V41.9367Z" fill="#1A416B"/>
<path d="M484.197 43.8471C484.197 43.0245 484.724 42.2942 485.504 42.0341C486.742 41.6216 488.019 42.5427 488.019 43.8471V46.1885C488.019 47.0111 487.493 47.7414 486.713 48.0015C485.475 48.414 484.197 47.4929 484.197 46.1885V43.8471Z" fill="#1A416B"/>
<path d="M477.19 45.7583C477.19 44.9357 477.716 44.2054 478.497 43.9453C479.734 43.5328 481.012 44.4539 481.012 45.7583V48.0997C481.012 48.9223 480.486 49.6526 479.705 49.9127C478.468 50.3252 477.19 49.4041 477.19 48.0997V45.7583Z" fill="#1A416B"/>
<path d="M470.183 47.6697C470.183 46.8471 470.709 46.1168 471.489 45.8566C472.727 45.4441 474.005 46.3652 474.005 47.6697V50.011C474.005 50.8336 473.478 51.5639 472.698 51.824C471.461 52.2365 470.183 51.3155 470.183 50.011V47.6697Z" fill="#1A416B"/>
<path d="M463.175 49.5808C463.175 48.7582 463.702 48.0279 464.482 47.7677C465.719 47.3552 466.997 48.2763 466.997 49.5808V51.9221C466.997 52.7447 466.471 53.475 465.691 53.7351C464.453 54.1476 463.175 53.2265 463.175 51.9221V49.5808Z" fill="#1A416B"/>
<path d="M456.168 51.4918C456.168 50.6692 456.694 49.9389 457.475 49.6788C458.712 49.2663 459.99 50.1874 459.99 51.4918V53.8332C459.99 54.6558 459.464 55.3861 458.683 55.6462C457.446 56.0587 456.168 55.1376 456.168 53.8332V51.4918Z" fill="#1A416B"/>
<path d="M449.161 53.4029C449.161 52.5803 449.687 51.85 450.467 51.5899C451.705 51.1774 452.983 52.0985 452.983 53.4029V55.7443C452.983 56.5669 452.456 57.2972 451.676 57.5573C450.439 57.9698 449.161 57.0487 449.161 55.7443V53.4029Z" fill="#1A416B"/>
<path d="M442.153 55.3143C442.153 54.4917 442.68 53.7614 443.46 53.5012C444.698 53.0887 445.976 54.0098 445.976 55.3143V57.6556C445.976 58.4782 445.449 59.2085 444.669 59.4686C443.431 59.8811 442.153 58.9601 442.153 57.6556V55.3143Z" fill="#1A416B"/>
<path d="M419.326 61.385C419.334 60.5624 419.867 59.8371 420.65 59.5844C421.891 59.1836 423.16 60.1167 423.148 61.4211L423.126 63.7623C423.118 64.5849 422.585 65.3102 421.802 65.5629C420.561 65.9637 419.292 65.0306 419.304 63.7262L419.326 61.385Z" fill="#1A416B"/>
<path d="M412.301 63.2298C412.309 62.4072 412.842 61.6819 413.625 61.4292C414.866 61.0284 416.135 61.9615 416.123 63.2659L416.101 65.6071C416.093 66.4297 415.56 67.155 414.777 67.4077C413.536 67.8085 412.267 66.8754 412.279 65.571L412.301 63.2298Z" fill="#1A416B"/>
<path d="M405.915 64.7814C405.922 64.1302 406.324 63.5484 406.931 63.3123C407.981 62.9037 409.111 63.6849 409.1 64.8115L409.073 67.7512C409.067 68.4023 408.665 68.9842 408.058 69.2203C407.008 69.6288 405.877 68.8477 405.888 67.7211L405.915 64.7814Z" fill="#1A416B"/>
<path d="M398.888 66.9254C398.895 66.1028 399.429 65.3775 400.211 65.1248C401.453 64.724 402.722 65.6571 402.71 66.9615L402.688 69.3028C402.68 70.1253 402.147 70.8506 401.364 71.1033C400.122 71.5041 398.853 70.571 398.866 69.2666L398.888 66.9254Z" fill="#1A416B"/>
<path d="M391.863 68.701C391.871 67.8606 392.427 67.1241 393.233 66.8861C394.465 66.5225 395.697 67.4529 395.685 68.7371L395.668 70.5798C395.66 71.4201 395.104 72.1566 394.298 72.3946C393.066 72.7583 391.834 71.8279 391.846 70.5437L391.863 68.701Z" fill="#1A416B"/>
<path d="M384.838 70.5458C384.846 69.7055 385.402 68.969 386.208 68.731C387.44 68.3674 388.672 69.2978 388.66 70.5819L388.643 72.4247C388.635 73.265 388.079 74.0015 387.273 74.2395C386.041 74.6031 384.809 73.6727 384.821 72.3886L384.838 70.5458Z" fill="#1A416B"/>
<path d="M378.453 72.0945C378.459 71.4264 378.882 70.8333 379.511 70.6092C380.554 70.238 381.648 71.0177 381.638 72.1246L381.615 74.5714C381.609 75.2395 381.186 75.8327 380.556 76.0567C379.514 76.428 378.419 75.6483 378.43 74.5413L378.453 72.0945Z" fill="#1A416B"/>
<path d="M371.425 74.2414C371.433 73.401 371.989 72.6645 372.795 72.4265C374.027 72.0629 375.259 72.9933 375.247 74.2775L375.23 76.1202C375.222 76.9605 374.666 77.6971 373.86 77.935C372.628 78.2987 371.396 77.3683 371.408 76.0841L371.425 74.2414Z" fill="#1A416B"/>
<path d="M364.405 75.5184C364.413 74.6959 364.946 73.9706 365.729 73.7178C366.971 73.3171 368.24 74.2502 368.227 75.5546L368.205 77.8958C368.198 78.7184 367.664 79.4437 366.882 79.6964C365.64 80.0972 364.371 79.1641 364.383 77.8597L364.405 75.5184Z" fill="#1A416B"/>
<path d="M357.38 77.3626C357.388 76.5401 357.921 75.8148 358.704 75.562C359.945 75.1612 361.215 76.0944 361.202 77.3987L361.18 79.74C361.172 80.5625 360.639 81.2878 359.856 81.5406C358.615 81.9414 357.346 81.0083 357.358 79.7039L357.38 77.3626Z" fill="#1A416B"/>
<path d="M350.995 78.9142C351.001 78.2631 351.403 77.6812 352.01 77.4451C353.06 77.0366 354.191 77.8177 354.18 78.9443L354.152 81.884C354.146 82.5352 353.744 83.117 353.137 83.3531C352.087 83.7617 350.957 82.9805 350.967 81.8539L350.995 78.9142Z" fill="#1A416B"/>
<path d="M343.967 81.0589C343.975 80.2363 344.508 79.511 345.291 79.2583C346.532 78.8575 347.801 79.7906 347.789 81.095L347.767 83.4362C347.759 84.2588 347.226 84.9841 346.443 85.2368C345.202 85.6376 343.933 84.7045 343.945 83.4001L343.967 81.0589Z" fill="#1A416B"/>
<path d="M326.94 86.566C326.97 86.0358 327.326 85.5799 327.833 85.4221C328.682 85.1577 329.534 85.8231 329.484 86.7112L329.366 88.7642C329.336 89.2944 328.98 89.7503 328.473 89.9081C327.624 90.1725 326.772 89.5071 326.823 88.619L326.94 86.566Z" fill="#1A416B"/>
<path d="M322.415 87.5837C322.446 87.0535 322.802 86.5977 323.309 86.4399C324.158 86.1755 325.01 86.8409 324.959 87.729L324.842 89.782C324.812 90.3122 324.456 90.768 323.949 90.9258C323.099 91.1902 322.247 90.5248 322.298 89.6367L322.415 87.5837Z" fill="#1A416B"/>
<path d="M317.89 88.6015C317.921 88.0713 318.277 87.6154 318.784 87.4576C319.633 87.1933 320.485 87.8586 320.434 88.7467L320.317 90.7997C320.287 91.3299 319.931 91.7858 319.424 91.9436C318.575 92.208 317.723 91.5426 317.773 90.6545L317.89 88.6015Z" fill="#1A416B"/>
<path d="M313.366 89.6195C313.396 89.0892 313.752 88.6334 314.259 88.4756C315.109 88.2112 315.961 88.8766 315.91 89.7647L315.793 91.8177C315.762 92.3479 315.406 92.8037 314.899 92.9616C314.05 93.2259 313.198 92.5606 313.249 91.6725L313.366 89.6195Z" fill="#1A416B"/>
<path d="M308.841 90.6373C308.872 90.1071 309.228 89.6513 309.735 89.4934C310.584 89.2291 311.436 89.8944 311.385 90.7825L311.268 92.8355C311.238 93.3658 310.882 93.8216 310.375 93.9794C309.525 94.2438 308.673 93.5784 308.724 92.6903L308.841 90.6373Z" fill="#1A416B"/>
<path d="M304.317 91.6544C304.347 91.1242 304.703 90.6684 305.21 90.5105C306.06 90.2462 306.912 90.9115 306.861 91.7996L306.744 93.8526C306.713 94.3829 306.357 94.8387 305.85 94.9965C305.001 95.2609 304.149 94.5955 304.2 93.7074L304.317 91.6544Z" fill="#1A416B"/>
<path d="M299.792 92.6731C299.822 92.1429 300.178 91.6871 300.686 91.5293C301.535 91.2649 302.387 91.9303 302.336 92.8184L302.219 94.8714C302.189 95.4016 301.833 95.8574 301.326 96.0152C300.476 96.2796 299.624 95.6142 299.675 94.7261L299.792 92.6731Z" fill="#1A416B"/>
<path d="M295.268 93.6909C295.298 93.1607 295.654 92.7048 296.161 92.547C297.01 92.2826 297.862 92.948 297.812 93.8361L297.694 95.8891C297.664 96.4193 297.308 96.8752 296.801 97.033C295.952 97.2974 295.1 96.632 295.15 95.7439L295.268 93.6909Z" fill="#1A416B"/>
<path d="M290.743 94.7086C290.774 94.1784 291.13 93.7226 291.637 93.5648C292.486 93.3004 293.338 93.9658 293.287 94.8539L293.17 96.9069C293.14 97.4371 292.784 97.8929 292.277 98.0507C291.427 98.3151 290.575 97.6497 290.626 96.7616L290.743 94.7086Z" fill="#1A416B"/>
<path d="M286.218 95.7264C286.249 95.1962 286.605 94.7404 287.112 94.5825C287.961 94.3182 288.813 94.9835 288.762 95.8716L288.645 97.9246C288.615 98.4548 288.259 98.9107 287.752 99.0685C286.903 99.3329 286.051 98.6675 286.101 97.7794L286.218 95.7264Z" fill="#1A416B"/>
<path d="M298.525 72.0896C288.4 75.8099 277.783 80.9934 271.146 84.2336C270.174 84.7083 269.287 85.1413 268.5 85.5219L268.473 85.5083C268.503 85.4952 268.532 85.4822 268.562 85.4694L246.569 13.2085C246.418 12.7122 246.789 12.2109 247.308 12.2109H256.054C256.343 12.2109 256.603 12.364 256.736 12.6205C268.056 34.4599 290.146 72.8514 298.502 72.0917C298.51 72.0911 298.517 72.0903 298.525 72.0896Z" fill="url(#paint1_linear_0_4726)"/>
<path opacity="0.31" d="M624.327 40.4227C624.338 40.6788 624.343 40.9365 624.343 41.1957C624.343 54.8919 598.543 83.5582 546.944 95.3433C505.664 104.771 357.746 120.931 288.947 127.832C282.489 125.763 274.743 119.517 268.596 112.783C270.719 112.554 273.413 112.302 276.689 111.997C295.802 110.212 334.738 106.575 395.968 94.7065C449.402 84.3489 502.481 69.2208 543.752 57.4581C572.357 49.3056 595.289 42.7696 608.736 40.5592C616.131 39.3435 621.071 39.4614 624.327 40.4227Z" fill="url(#paint2_linear_0_4726)"/>
<path d="M244.433 119.216C253.983 121.822 259.694 118.025 262.261 114.591C262.931 113.694 262.202 112.563 261.083 112.581L244.684 112.837C243.809 112.851 243.119 113.589 243.165 114.463L243.343 117.841C243.377 118.486 243.81 119.046 244.433 119.216Z" fill="url(#paint3_linear_0_4726)"/>
<path d="M244.433 119.216C253.983 121.822 259.694 118.025 262.261 114.591C262.931 113.694 262.202 112.563 261.083 112.581L244.684 112.837C243.809 112.851 243.119 113.589 243.165 114.463L243.343 117.841C243.377 118.486 243.81 119.046 244.433 119.216Z" fill="#7998CD"/>
<path d="M198.948 121.524C208.006 123.837 213.215 119.759 215.477 116.187C216.067 115.256 215.291 114.181 214.19 114.239L199.008 115.036C198.137 115.081 197.476 115.839 197.55 116.709L197.843 120.193C197.897 120.826 198.332 121.367 198.948 121.524Z" fill="url(#paint4_linear_0_4726)"/>
<path d="M198.948 121.524C208.006 123.837 213.215 119.759 215.477 116.187C216.067 115.256 215.291 114.181 214.19 114.239L199.008 115.036C198.137 115.081 197.476 115.839 197.55 116.709L197.843 120.193C197.897 120.826 198.332 121.367 198.948 121.524Z" fill="#5E80BF"/>
<path d="M151.654 122.777C158.712 125.381 162.945 121.486 164.833 118.012C165.337 117.083 164.59 116.057 163.533 116.073L152.117 116.248C151.253 116.262 150.568 116.98 150.596 117.844L150.713 121.434C150.733 122.031 151.094 122.57 151.654 122.777Z" fill="url(#paint5_linear_0_4726)"/>
<path d="M151.654 122.777C158.712 125.381 162.945 121.486 164.833 118.012C165.337 117.083 164.59 116.057 163.533 116.073L152.117 116.248C151.253 116.262 150.568 116.98 150.596 117.844L150.713 121.434C150.733 122.031 151.094 122.57 151.654 122.777Z" fill="#3C62AC"/>
<path d="M528.842 52.8281L522.623 54.2744C520.445 54.781 518.282 53.3336 518.041 51.1102C516.406 36.0187 519.736 24.9239 522.279 19.9551C522.741 19.0528 523.609 18.453 524.596 18.2234L529.213 17.1497C532.316 16.4281 535.03 19.6202 534.196 22.6953C531.619 32.2059 531.462 42.2006 531.925 48.5084C532.072 50.5071 530.794 52.3741 528.842 52.8281Z" fill="url(#paint6_linear_0_4726)"/>
<path d="M435.62 74.3479L430.685 75.5322C429.821 75.7395 428.959 75.1772 428.829 74.2985C426.568 58.99 431.377 44.9967 432.916 44.3812L437.391 43.128C438.702 42.7611 439.862 44.172 439.358 45.4363C435.525 55.0627 435.903 66.5215 436.809 72.5516C436.932 73.3688 436.424 74.155 435.62 74.3479Z" fill="url(#paint7_linear_0_4726)"/>
<path d="M422.087 100.935C409.346 115.205 365.285 116.33 351.695 115.906C316.977 107.942 257.414 111.446 196.26 114.313C135.105 117.18 41.8961 116.223 20.8741 115.268C-0.147875 114.312 -1.43747 113.478 0.785829 110.632C3.08121 107.694 140.838 107.943 178.423 106.032C216.008 104.121 362.496 89.4946 370.806 88.8317C429.206 84.173 438.012 83.0982 422.087 100.935Z" fill="url(#paint8_linear_0_4726)"/>
<path d="M422.087 100.935C409.346 115.205 365.285 116.33 351.695 115.906C316.977 107.942 257.414 111.446 196.26 114.313C135.105 117.18 41.8961 116.223 20.8741 115.268C-0.147875 114.312 -1.43747 113.478 0.785829 110.632C3.08121 107.694 140.838 107.943 178.423 106.032C216.008 104.121 362.496 89.4946 370.806 88.8317C429.206 84.173 438.012 83.0982 422.087 100.935Z" fill="white"/>
<path d="M438.092 98.2703C425.351 112.54 365.285 118.066 351.695 117.641C316.977 109.678 257.415 113.182 196.26 116.049C135.105 118.915 49.4248 117.004 28.4028 116.049C7.38082 115.093 -2.81165 113.501 0.692009 112.226C4.19567 110.952 140.839 109.678 178.423 107.767C216.008 105.856 362.496 91.2302 370.806 90.5673C429.207 85.9086 454.018 80.4335 438.092 98.2703Z" fill="url(#paint9_linear_0_4726)"/>
<path d="M438.092 98.2703C425.351 112.54 365.285 118.066 351.695 117.641C316.977 109.678 257.415 113.182 196.26 116.049C135.105 118.915 49.4248 117.004 28.4028 116.049C7.38082 115.093 -2.81165 113.501 0.692009 112.226C4.19567 110.952 140.839 109.678 178.423 107.767C216.008 105.856 362.496 91.2302 370.806 90.5673C429.207 85.9086 454.018 80.4335 438.092 98.2703Z" fill="url(#paint10_linear_0_4726)"/>
<path d="M353.287 129.425C353.924 108.403 340.228 103.307 333.858 101.396C321.117 98.2107 307.74 104.263 297.547 110.314C287.355 116.366 280.666 124.647 284.807 139.299C288.119 151.02 303.599 156.287 310.925 157.454C315.703 157.136 325.704 156.308 327.488 155.543C329.717 154.588 352.621 151.403 353.287 129.425Z" fill="url(#paint11_linear_0_4726)"/>
<path d="M333.859 101.396C340.229 103.307 353.925 108.403 353.288 129.425C352.868 143.276 343.616 149.662 336.273 152.731C330.96 154.006 324.749 153.959 318.251 150.447C306.466 144.077 299.778 124.698 310.926 110.314C316.959 102.529 324.459 100.571 330.81 100.807C331.829 100.948 332.846 101.143 333.859 101.396Z" fill="white"/>
<ellipse cx="330.035" cy="127.195" rx="20.385" ry="22.9331" fill="#1A416B"/>
<path d="M603.665 12.8953L595.996 13.4852C598.013 16.2457 602.175 21.7666 602.685 21.7666C603.194 21.7666 608.418 20.4926 610.966 19.8555C610.963 19.8363 610.959 19.8167 610.954 19.7968C610.624 19.5831 610.308 19.39 610.01 19.2182C608.018 16.8479 605.894 14.749 603.665 12.8953Z" fill="#1A416B"/>
<path d="M601.092 22.0851L594.722 13.8037L578.159 15.3963C579.539 18.1568 582.491 23.7414 583.255 23.9962C584.02 24.251 595.677 22.9345 601.092 22.0851Z" fill="#1A416B"/>
<path d="M576.885 15.7148L581.344 24.3147C574.974 26.8629 561.635 31.0036 558.73 31.0036C557.774 31.0036 560.11 21.7666 561.915 20.8111C566.247 18.5178 573.806 16.458 576.885 15.7148Z" fill="#1A416B"/>
<path d="M338.096 79.5164C337.282 83.8911 337.04 88.8368 337.023 92.1046C337.018 93.2246 336.206 94.1891 335.097 94.3475C333.771 94.537 332.582 93.5073 332.623 92.1684C332.823 85.5653 333.76 80.8379 334.272 78.5089C334.409 77.883 334.862 77.3759 335.465 77.1604C336.908 76.6451 338.376 78.0102 338.096 79.5164Z" fill="url(#paint12_linear_0_4726)"/>
<defs>
<linearGradient id="paint0_linear_0_4726" x1="481.351" y1="76.8601" x2="591.619" y2="25.9272" gradientUnits="userSpaceOnUse">
<stop stop-color="#2C5EC4"/>
<stop offset="1" stop-color="#D9EAFC"/>
</linearGradient>
<linearGradient id="paint1_linear_0_4726" x1="287.068" y1="2.57513" x2="234.6" y2="-2.70094" gradientUnits="userSpaceOnUse">
<stop stop-color="#234C9E"/>
<stop offset="1" stop-color="#5A8DF1"/>
</linearGradient>
<linearGradient id="paint2_linear_0_4726" x1="613.546" y1="39.5301" x2="282.634" y2="98.6129" gradientUnits="userSpaceOnUse">
<stop stop-color="#D9EAFC"/>
<stop offset="1" stop-color="#3594FE"/>
</linearGradient>
<linearGradient id="paint3_linear_0_4726" x1="267.813" y1="109.094" x2="243.074" y2="122.129" gradientUnits="userSpaceOnUse">
<stop stop-color="#24323D"/>
<stop offset="0.0001" stop-color="#5A86AA"/>
<stop offset="1" stop-color="#B9DDFD"/>
</linearGradient>
<linearGradient id="paint4_linear_0_4726" x1="220.451" y1="110.476" x2="196.93" y2="122.985" gradientUnits="userSpaceOnUse">
<stop stop-color="#24323D"/>
<stop offset="0.0001" stop-color="#5A86AA"/>
<stop offset="1" stop-color="#B9DDFD"/>
</linearGradient>
<linearGradient id="paint5_linear_0_4726" x1="168.934" y1="112.561" x2="148.456" y2="120.321" gradientUnits="userSpaceOnUse">
<stop stop-color="#24323D"/>
<stop offset="0.0001" stop-color="#5A86AA"/>
<stop offset="1" stop-color="#B9DDFD"/>
</linearGradient>
<linearGradient id="paint6_linear_0_4726" x1="527.179" y1="15.3965" x2="527.179" y2="55.2108" gradientUnits="userSpaceOnUse">
<stop stop-color="#D9EAFC"/>
<stop offset="1" stop-color="#B1D0F1"/>
</linearGradient>
<linearGradient id="paint7_linear_0_4726" x1="434.557" y1="42.1516" x2="434.557" y2="75.9142" gradientUnits="userSpaceOnUse">
<stop stop-color="#D9EAFC"/>
<stop offset="1" stop-color="#B1D0F1"/>
</linearGradient>
<linearGradient id="paint8_linear_0_4726" x1="403.176" y1="116.211" x2="315.124" y2="-39.1138" gradientUnits="userSpaceOnUse">
<stop stop-color="#6F98B9"/>
<stop offset="1" stop-color="#D9EAFC"/>
</linearGradient>
<linearGradient id="paint9_linear_0_4726" x1="403.176" y1="117.947" x2="315.124" y2="-37.3782" gradientUnits="userSpaceOnUse">
<stop stop-color="#6F98B9"/>
<stop offset="1" stop-color="#D9EAFC"/>
</linearGradient>
<linearGradient id="paint10_linear_0_4726" x1="28.6008" y1="163.943" x2="94.8053" y2="281.454" gradientUnits="userSpaceOnUse">
<stop stop-color="#244D9F"/>
<stop offset="1" stop-color="#D3E8FE"/>
</linearGradient>
<linearGradient id="paint11_linear_0_4726" x1="225.244" y1="94.7069" x2="331.519" y2="66.8088" gradientUnits="userSpaceOnUse">
<stop stop-color="#2C5EC4"/>
<stop offset="1" stop-color="#D9EAFC"/>
</linearGradient>
<linearGradient id="paint12_linear_0_4726" x1="335.77" y1="75.9141" x2="335.77" y2="94.7064" gradientUnits="userSpaceOnUse">
<stop stop-color="#D9EAFC"/>
<stop offset="1" stop-color="#B1D0F1"/>
</linearGradient>
</defs>
</svg>
