<svg width="14" height="14" viewBox="0 0 14 14" fill="none" xmlns="http://www.w3.org/2000/svg">
<path d="M7.25 0.5C5.96442 0.5 4.70772 0.881218 3.6388 1.59545C2.56988 2.30968 1.73676 3.32484 1.24479 4.51256C0.752816 5.70028 0.624095 7.00721 0.874899 8.26809C1.1257 9.52896 1.74477 10.6872 2.65381 11.5962C3.56285 12.5052 4.72104 13.1243 5.98192 13.3751C7.24279 13.6259 8.54973 13.4972 9.73744 13.0052C10.9252 12.5132 11.9403 11.6801 12.6546 10.6112C13.3688 9.54229 13.75 8.28558 13.75 7C13.7482 5.27665 13.0628 3.62441 11.8442 2.40582C10.6256 1.18722 8.97335 0.50182 7.25 0.5ZM12.75 7C12.7505 7.70561 12.6147 8.40468 12.35 9.05875L9.55625 7.34062C9.43747 7.26733 9.30459 7.21984 9.16625 7.20125L7.74 7.00875C7.54347 6.98312 7.34375 7.01607 7.16586 7.10346C6.98798 7.19084 6.83983 7.32879 6.74 7.5H6.195L5.9575 7.00875C5.89184 6.87196 5.79575 6.75201 5.67659 6.65809C5.55742 6.56417 5.41834 6.49876 5.27 6.46688L4.77 6.35875L5.25875 5.5H6.30313C6.47212 5.49967 6.6383 5.45667 6.78625 5.375L7.55188 4.9525C7.61914 4.915 7.68203 4.87015 7.73938 4.81875L9.42125 3.2975C9.58988 3.14638 9.70195 2.9423 9.739 2.71892C9.77604 2.49554 9.73583 2.26621 9.625 2.06875L9.6025 2.02813C10.5436 2.47437 11.3389 3.17837 11.896 4.05841C12.4531 4.93845 12.7493 5.95844 12.75 7ZM1.75 7C1.74917 6.18251 1.93155 5.37523 2.28375 4.6375L2.9925 6.52938C3.05157 6.68602 3.14901 6.82532 3.2759 6.93452C3.40279 7.04372 3.55506 7.11931 3.71875 7.15438L5.05813 7.4425L5.29625 7.9375C5.37889 8.10586 5.50697 8.24775 5.666 8.34715C5.82504 8.44655 6.00871 8.49949 6.19625 8.5H6.28875L5.83688 9.51437C5.75726 9.69299 5.73176 9.89102 5.76353 10.084C5.7953 10.2769 5.88295 10.4563 6.01563 10.6L6.02438 10.6088L7.25 11.8713L7.12875 12.4963C5.6924 12.4628 4.32598 11.8694 3.32108 10.8425C2.31618 9.81567 1.75239 8.43674 1.75 7Z" fill="white"/>
</svg>
