<svg width="15" height="13" viewBox="0 0 15 13" fill="none" xmlns="http://www.w3.org/2000/svg">
<path d="M14.5 12H13.5V7.49998L13.6462 7.64623C13.7402 7.74005 13.8676 7.79269 14.0004 7.79257C14.1332 7.79246 14.2606 7.73959 14.3544 7.6456C14.4482 7.55162 14.5008 7.42421 14.5007 7.29141C14.5006 7.15861 14.4477 7.0313 14.3538 6.93748L8.20687 0.792478C8.01936 0.605084 7.7651 0.499817 7.5 0.499817C7.2349 0.499817 6.98064 0.605084 6.79313 0.792478L0.64625 6.93748C0.552513 7.0313 0.499884 7.15851 0.499943 7.29114C0.500002 7.42376 0.552742 7.55093 0.646562 7.64467C0.740383 7.7384 0.867598 7.79103 1.00022 7.79097C1.13284 7.79091 1.26001 7.73817 1.35375 7.64435L1.5 7.49998V12H0.5C0.367392 12 0.240215 12.0527 0.146447 12.1464C0.0526784 12.2402 0 12.3674 0 12.5C0 12.6326 0.0526784 12.7598 0.146447 12.8535C0.240215 12.9473 0.367392 13 0.5 13H14.5C14.6326 13 14.7598 12.9473 14.8536 12.8535C14.9473 12.7598 15 12.6326 15 12.5C15 12.3674 14.9473 12.2402 14.8536 12.1464C14.7598 12.0527 14.6326 12 14.5 12ZM9 12H6V8.99998C6 8.93367 6.02634 8.87009 6.07322 8.8232C6.12011 8.77632 6.1837 8.74998 6.25 8.74998H8.75C8.8163 8.74998 8.87989 8.77632 8.92678 8.8232C8.97366 8.87009 9 8.93367 9 8.99998V12Z" fill="#A8A8A8"/>
</svg>
