<svg width="13" height="13" viewBox="0 0 13 13" fill="none" xmlns="http://www.w3.org/2000/svg">
<path d="M12.22 10.3287C12.2525 10.4181 12.2589 10.515 12.2383 10.6079C12.2177 10.7007 12.171 10.7858 12.1038 10.8531L10.6038 12.3531C10.5573 12.3996 10.5022 12.4366 10.4415 12.4618C10.3808 12.487 10.3157 12.5 10.25 12.5C10.2336 12.5009 10.2171 12.5009 10.2006 12.5C10.127 12.4927 10.0559 12.4692 9.99249 12.4312C9.92905 12.3932 9.87484 12.3415 9.83377 12.28L7.07939 8.14748L5.75002 9.47436V11C5.74996 11.1324 5.69736 11.2594 5.60377 11.3531C5.60377 11.3531 4.72877 12.2319 4.61127 12.3456C4.56242 12.3968 4.50317 12.4368 4.43752 12.4631C4.31515 12.513 4.17803 12.5123 4.05612 12.4614C3.93421 12.4104 3.83741 12.3133 3.78689 12.1912L3.78314 12.1819L2.86439 9.88436L0.562517 8.96373C0.485728 8.93301 0.417758 8.88373 0.364697 8.82028C0.311636 8.75684 0.27514 8.68123 0.25848 8.60022C0.241819 8.51921 0.245515 8.43533 0.269234 8.3561C0.292954 8.27687 0.335957 8.20476 0.394392 8.14623L1.39439 7.14623C1.44108 7.09959 1.49655 7.06265 1.55758 7.03755C1.61862 7.01245 1.68402 6.99968 1.75002 6.99998H3.27502L4.60439 5.67061L0.472517 2.91561C0.410891 2.87458 0.359143 2.82039 0.321011 2.75693C0.28288 2.69347 0.259315 2.62234 0.25202 2.54867C0.244724 2.47499 0.25388 2.40062 0.278825 2.33092C0.303771 2.26122 0.343884 2.19792 0.396267 2.14561L1.89627 0.645607C1.96356 0.578349 2.04864 0.531685 2.14152 0.511094C2.2344 0.490502 2.33123 0.496838 2.42064 0.529357L7.79189 2.48248L9.76252 0.511857C10.0907 0.183651 10.5359 -0.000732422 11 -0.000732422C11.2298 -0.000732422 11.4574 0.0445349 11.6697 0.132485C11.8821 0.220435 12.075 0.349346 12.2375 0.511857C12.4 0.674368 12.5289 0.867296 12.6169 1.07963C12.7048 1.29196 12.7501 1.51953 12.7501 1.74936C12.7501 1.97918 12.7048 2.20676 12.6169 2.41909C12.5289 2.63142 12.4 2.82435 12.2375 2.98686L10.2669 4.95748L12.22 10.3287Z" fill="#A8A8A8"/>
</svg>
